<svg width="1084" height="501" viewBox="0 0 1084 501" fill="none" xmlns="http://www.w3.org/2000/svg">
<rect width="1084" height="501" fill="#FCFCFE"/>
<g clip-path="url(#clip0_24_253)">
<path d="M138.999 462.347C138.617 459.348 141.09 459.554 144.089 459.172L145.668 458.971C148.667 458.589 151.009 457.769 151.391 460.769" stroke="#F2F2F3" stroke-width="5" stroke-linecap="round" stroke-linejoin="round"/>
<path d="M144.878 459.072L146.573 472.371" stroke="#F2F2F3" stroke-width="5" stroke-linecap="round" stroke-linejoin="round"/>
<path d="M128.597 445.545L129.085 449.373" stroke="#F2F2F3" stroke-width="5" stroke-linecap="round" stroke-linejoin="round"/>
<path d="M157.248 441.895L157.736 445.723" stroke="#F2F2F3" stroke-width="5" stroke-linecap="round" stroke-linejoin="round"/>
<path d="M178.241 450.851L160.714 459.34" stroke="#F2F2F3" stroke-width="5" stroke-linecap="round" stroke-linejoin="round"/>
<path d="M176.893 463.254L161.905 468.693" stroke="#F2F2F3" stroke-width="5" stroke-linecap="round" stroke-linejoin="round"/>
<path d="M110.481 459.483L129.616 463.302" stroke="#F2F2F3" stroke-width="5" stroke-linecap="round" stroke-linejoin="round"/>
<path d="M114.935 471.148L130.808 472.655" stroke="#F2F2F3" stroke-width="5" stroke-linecap="round" stroke-linejoin="round"/>
<path d="M123.126 421.177C114.882 417.535 102.259 412.887 98.8091 416.976C94.1788 422.498 108.209 441.966 111.07 445.532C111.181 440.839 112.319 436.227 114.401 432.02C116.484 427.812 119.462 424.111 123.126 421.177Z" stroke="#F2F2F3" stroke-width="5" stroke-linecap="round" stroke-linejoin="round"/>
<path d="M174.41 437.463C176.077 433.24 184.788 410.955 178.921 406.769C174.517 403.681 163.462 411.346 156.434 416.933C160.751 418.829 164.599 421.651 167.705 425.199C170.811 428.746 173.1 432.933 174.41 437.463Z" stroke="#F2F2F3" stroke-width="5" stroke-linecap="round" stroke-linejoin="round"/>
<path d="M159.89 482.465L136.212 485.482C129.503 486.336 122.86 481.729 117.821 475.232C111.857 467.449 109.973 463.679 110.502 453.666L110.843 447.526C110.604 439.469 113.375 431.612 118.615 425.487C123.856 419.362 131.19 415.409 139.187 414.398C147.182 413.371 155.273 415.359 161.882 419.975C168.491 424.59 173.143 431.501 174.932 439.361L176.806 445.259C179.824 454.78 178.931 458.784 175.01 467.986C171.756 475.499 166.481 481.625 159.89 482.465Z" stroke="#F2F2F3" stroke-width="5" stroke-linecap="round" stroke-linejoin="round"/>
</g>
<g clip-path="url(#clip1_24_253)">
<path d="M179.999 307.347C179.617 304.348 182.09 304.554 185.089 304.172L186.668 303.971C189.667 303.589 192.009 302.769 192.391 305.769" stroke="#F2F2F3" stroke-width="5" stroke-linecap="round" stroke-linejoin="round"/>
<path d="M185.878 304.072L187.573 317.371" stroke="#F2F2F3" stroke-width="5" stroke-linecap="round" stroke-linejoin="round"/>
<path d="M169.597 290.545L170.085 294.373" stroke="#F2F2F3" stroke-width="5" stroke-linecap="round" stroke-linejoin="round"/>
<path d="M198.248 286.895L198.736 290.723" stroke="#F2F2F3" stroke-width="5" stroke-linecap="round" stroke-linejoin="round"/>
<path d="M219.241 295.851L201.714 304.34" stroke="#F2F2F3" stroke-width="5" stroke-linecap="round" stroke-linejoin="round"/>
<path d="M217.893 308.254L202.905 313.693" stroke="#F2F2F3" stroke-width="5" stroke-linecap="round" stroke-linejoin="round"/>
<path d="M151.481 304.483L170.616 308.302" stroke="#F2F2F3" stroke-width="5" stroke-linecap="round" stroke-linejoin="round"/>
<path d="M155.935 316.148L171.808 317.655" stroke="#F2F2F3" stroke-width="5" stroke-linecap="round" stroke-linejoin="round"/>
<path d="M164.126 266.177C155.882 262.535 143.259 257.887 139.809 261.976C135.179 267.498 149.209 286.966 152.07 290.532C152.181 285.839 153.319 281.227 155.401 277.02C157.484 272.812 160.462 269.111 164.126 266.177Z" stroke="#F2F2F3" stroke-width="5" stroke-linecap="round" stroke-linejoin="round"/>
<path d="M215.41 282.463C217.077 278.24 225.788 255.955 219.921 251.769C215.517 248.681 204.462 256.346 197.434 261.933C201.751 263.829 205.599 266.651 208.705 270.199C211.811 273.746 214.1 277.933 215.41 282.463Z" stroke="#F2F2F3" stroke-width="5" stroke-linecap="round" stroke-linejoin="round"/>
<path d="M200.89 327.465L177.212 330.482C170.503 331.336 163.86 326.729 158.821 320.232C152.857 312.449 150.973 308.679 151.502 298.666L151.843 292.526C151.604 284.469 154.375 276.612 159.615 270.487C164.856 264.362 172.19 260.409 180.187 259.398C188.182 258.371 196.273 260.359 202.882 264.975C209.491 269.59 214.143 276.501 215.932 284.361L217.806 290.259C220.824 299.78 219.931 303.784 216.01 312.986C212.756 320.499 207.481 326.625 200.89 327.465Z" stroke="#F2F2F3" stroke-width="5" stroke-linecap="round" stroke-linejoin="round"/>
</g>
<g clip-path="url(#clip2_24_253)">
<path d="M125.999 152.347C125.617 149.348 128.09 149.554 131.089 149.172L132.668 148.971C135.667 148.589 138.009 147.769 138.391 150.769" stroke="#F2F2F3" stroke-width="5" stroke-linecap="round" stroke-linejoin="round"/>
<path d="M131.878 149.072L133.573 162.371" stroke="#F2F2F3" stroke-width="5" stroke-linecap="round" stroke-linejoin="round"/>
<path d="M115.597 135.545L116.085 139.373" stroke="#F2F2F3" stroke-width="5" stroke-linecap="round" stroke-linejoin="round"/>
<path d="M144.248 131.895L144.736 135.723" stroke="#F2F2F3" stroke-width="5" stroke-linecap="round" stroke-linejoin="round"/>
<path d="M165.241 140.851L147.714 149.34" stroke="#F2F2F3" stroke-width="5" stroke-linecap="round" stroke-linejoin="round"/>
<path d="M163.893 153.254L148.905 158.693" stroke="#F2F2F3" stroke-width="5" stroke-linecap="round" stroke-linejoin="round"/>
<path d="M97.481 149.483L116.616 153.302" stroke="#F2F2F3" stroke-width="5" stroke-linecap="round" stroke-linejoin="round"/>
<path d="M101.935 161.148L117.808 162.655" stroke="#F2F2F3" stroke-width="5" stroke-linecap="round" stroke-linejoin="round"/>
<path d="M110.126 111.177C101.882 107.535 89.2585 102.887 85.8091 106.976C81.1788 112.498 95.2092 131.966 98.0697 135.532C98.1814 130.839 99.3185 126.227 101.401 122.02C103.484 117.812 106.462 114.111 110.126 111.177Z" stroke="#F2F2F3" stroke-width="5" stroke-linecap="round" stroke-linejoin="round"/>
<path d="M161.41 127.463C163.077 123.24 171.788 100.955 165.921 96.7693C161.517 93.6808 150.462 101.346 143.434 106.933C147.751 108.829 151.599 111.651 154.705 115.199C157.811 118.746 160.1 122.933 161.41 127.463Z" stroke="#F2F2F3" stroke-width="5" stroke-linecap="round" stroke-linejoin="round"/>
<path d="M146.89 172.465L123.212 175.482C116.503 176.336 109.86 171.729 104.821 165.232C98.8568 157.449 96.9727 153.679 97.5018 143.666L97.8425 137.526C97.6037 129.469 100.375 121.612 105.615 115.487C110.856 109.362 118.19 105.409 126.187 104.398C134.182 103.371 142.273 105.359 148.882 109.975C155.491 114.59 160.143 121.501 161.932 129.361L163.806 135.259C166.824 144.78 165.931 148.784 162.01 157.986C158.756 165.499 153.481 171.625 146.89 172.465Z" stroke="#F2F2F3" stroke-width="5" stroke-linecap="round" stroke-linejoin="round"/>
</g>
<g clip-path="url(#clip3_24_253)">
<path d="M286.999 89.3472C286.617 86.3479 289.09 86.5543 292.089 86.1722L293.668 85.9711C296.667 85.589 299.009 84.7692 299.391 87.7685" stroke="#F2F2F3" stroke-width="5" stroke-linecap="round" stroke-linejoin="round"/>
<path d="M292.878 86.0715L294.573 99.3709" stroke="#F2F2F3" stroke-width="5" stroke-linecap="round" stroke-linejoin="round"/>
<path d="M276.597 72.545L277.085 76.3731" stroke="#F2F2F3" stroke-width="5" stroke-linecap="round" stroke-linejoin="round"/>
<path d="M305.248 68.895L305.736 72.723" stroke="#F2F2F3" stroke-width="5" stroke-linecap="round" stroke-linejoin="round"/>
<path d="M326.241 77.8509L308.714 86.3401" stroke="#F2F2F3" stroke-width="5" stroke-linecap="round" stroke-linejoin="round"/>
<path d="M324.893 90.2544L309.905 95.6931" stroke="#F2F2F3" stroke-width="5" stroke-linecap="round" stroke-linejoin="round"/>
<path d="M258.481 86.4834L277.616 90.3019" stroke="#F2F2F3" stroke-width="5" stroke-linecap="round" stroke-linejoin="round"/>
<path d="M262.935 98.1479L278.808 99.6549" stroke="#F2F2F3" stroke-width="5" stroke-linecap="round" stroke-linejoin="round"/>
<path d="M271.126 48.1767C262.882 44.5348 250.259 39.8867 246.809 43.9757C242.179 49.4985 256.209 68.9665 259.07 72.5323C259.181 67.839 260.319 63.2269 262.401 59.0195C264.484 54.8122 267.462 51.1114 271.126 48.1767Z" stroke="#F2F2F3" stroke-width="5" stroke-linecap="round" stroke-linejoin="round"/>
<path d="M322.41 64.4627C324.077 60.2397 332.788 37.9547 326.921 33.7693C322.517 30.6808 311.462 38.3456 304.434 43.9332C308.751 45.8294 312.599 48.6511 315.705 52.1986C318.811 55.7462 321.1 59.9329 322.41 64.4627Z" stroke="#F2F2F3" stroke-width="5" stroke-linecap="round" stroke-linejoin="round"/>
<path d="M307.89 109.465L284.212 112.482C277.503 113.336 270.86 108.729 265.821 102.232C259.857 94.4494 257.973 90.679 258.502 80.6656L258.843 74.5263C258.604 66.469 261.375 58.6117 266.615 52.4868C271.856 46.3619 279.19 42.4087 287.187 41.3982C295.182 40.3713 303.273 42.3593 309.882 46.9746C316.491 51.5899 321.143 58.5015 322.932 66.3613L324.806 72.2585C327.824 81.7799 326.931 85.7839 323.01 94.9861C319.756 102.499 314.481 108.625 307.89 109.465Z" stroke="#F2F2F3" stroke-width="5" stroke-linecap="round" stroke-linejoin="round"/>
</g>
<g clip-path="url(#clip4_24_253)">
<path d="M327.999 408.347C327.617 405.348 330.09 405.554 333.089 405.172L334.668 404.971C337.667 404.589 340.009 403.769 340.391 406.769" stroke="#F2F2F3" stroke-width="5" stroke-linecap="round" stroke-linejoin="round"/>
<path d="M333.878 405.072L335.573 418.371" stroke="#F2F2F3" stroke-width="5" stroke-linecap="round" stroke-linejoin="round"/>
<path d="M317.597 391.545L318.085 395.373" stroke="#F2F2F3" stroke-width="5" stroke-linecap="round" stroke-linejoin="round"/>
<path d="M346.248 387.895L346.736 391.723" stroke="#F2F2F3" stroke-width="5" stroke-linecap="round" stroke-linejoin="round"/>
<path d="M367.241 396.851L349.714 405.34" stroke="#F2F2F3" stroke-width="5" stroke-linecap="round" stroke-linejoin="round"/>
<path d="M365.893 409.254L350.905 414.693" stroke="#F2F2F3" stroke-width="5" stroke-linecap="round" stroke-linejoin="round"/>
<path d="M299.481 405.483L318.616 409.302" stroke="#F2F2F3" stroke-width="5" stroke-linecap="round" stroke-linejoin="round"/>
<path d="M303.935 417.148L319.808 418.655" stroke="#F2F2F3" stroke-width="5" stroke-linecap="round" stroke-linejoin="round"/>
<path d="M312.126 367.177C303.882 363.535 291.259 358.887 287.809 362.976C283.179 368.498 297.209 387.966 300.07 391.532C300.181 386.839 301.319 382.227 303.401 378.02C305.484 373.812 308.462 370.111 312.126 367.177Z" stroke="#F2F2F3" stroke-width="5" stroke-linecap="round" stroke-linejoin="round"/>
<path d="M363.41 383.463C365.077 379.24 373.788 356.955 367.921 352.769C363.517 349.681 352.462 357.346 345.434 362.933C349.751 364.829 353.599 367.651 356.705 371.199C359.811 374.746 362.1 378.933 363.41 383.463Z" stroke="#F2F2F3" stroke-width="5" stroke-linecap="round" stroke-linejoin="round"/>
<path d="M348.89 428.465L325.212 431.482C318.503 432.336 311.86 427.729 306.821 421.232C300.857 413.449 298.973 409.679 299.502 399.666L299.843 393.526C299.604 385.469 302.375 377.612 307.615 371.487C312.856 365.362 320.19 361.409 328.187 360.398C336.182 359.371 344.273 361.359 350.882 365.975C357.491 370.59 362.143 377.501 363.932 385.361L365.806 391.259C368.824 400.78 367.931 404.784 364.01 413.986C360.756 421.499 355.481 427.625 348.89 428.465Z" stroke="#F2F2F3" stroke-width="5" stroke-linecap="round" stroke-linejoin="round"/>
</g>
<g clip-path="url(#clip5_24_253)">
<path d="M350.999 224.347C350.617 221.348 353.09 221.554 356.089 221.172L357.668 220.971C360.667 220.589 363.009 219.769 363.391 222.769" stroke="#F2F2F3" stroke-width="5" stroke-linecap="round" stroke-linejoin="round"/>
<path d="M356.878 221.072L358.573 234.371" stroke="#F2F2F3" stroke-width="5" stroke-linecap="round" stroke-linejoin="round"/>
<path d="M340.597 207.545L341.085 211.373" stroke="#F2F2F3" stroke-width="5" stroke-linecap="round" stroke-linejoin="round"/>
<path d="M369.248 203.895L369.736 207.723" stroke="#F2F2F3" stroke-width="5" stroke-linecap="round" stroke-linejoin="round"/>
<path d="M390.241 212.851L372.714 221.34" stroke="#F2F2F3" stroke-width="5" stroke-linecap="round" stroke-linejoin="round"/>
<path d="M388.893 225.254L373.905 230.693" stroke="#F2F2F3" stroke-width="5" stroke-linecap="round" stroke-linejoin="round"/>
<path d="M322.481 221.483L341.616 225.302" stroke="#F2F2F3" stroke-width="5" stroke-linecap="round" stroke-linejoin="round"/>
<path d="M326.935 233.148L342.808 234.655" stroke="#F2F2F3" stroke-width="5" stroke-linecap="round" stroke-linejoin="round"/>
<path d="M335.126 183.177C326.882 179.535 314.259 174.887 310.809 178.976C306.179 184.498 320.209 203.966 323.07 207.532C323.181 202.839 324.319 198.227 326.401 194.02C328.484 189.812 331.462 186.111 335.126 183.177Z" stroke="#F2F2F3" stroke-width="5" stroke-linecap="round" stroke-linejoin="round"/>
<path d="M386.41 199.463C388.077 195.24 396.788 172.955 390.921 168.769C386.517 165.681 375.462 173.346 368.434 178.933C372.751 180.829 376.599 183.651 379.705 187.199C382.811 190.746 385.1 194.933 386.41 199.463Z" stroke="#F2F2F3" stroke-width="5" stroke-linecap="round" stroke-linejoin="round"/>
<path d="M371.89 244.465L348.212 247.482C341.503 248.336 334.86 243.729 329.821 237.232C323.857 229.449 321.973 225.679 322.502 215.666L322.843 209.526C322.604 201.469 325.375 193.612 330.615 187.487C335.856 181.362 343.19 177.409 351.187 176.398C359.182 175.371 367.273 177.359 373.882 181.975C380.491 186.59 385.143 193.501 386.932 201.361L388.806 207.259C391.824 216.78 390.931 220.784 387.01 229.986C383.756 237.499 378.481 243.625 371.89 244.465Z" stroke="#F2F2F3" stroke-width="5" stroke-linecap="round" stroke-linejoin="round"/>
</g>
<g clip-path="url(#clip6_24_253)">
<path d="M495.999 89.3472C495.617 86.3479 498.09 86.5543 501.089 86.1722L502.668 85.9711C505.667 85.589 508.009 84.7692 508.391 87.7685" stroke="#F2F2F3" stroke-width="5" stroke-linecap="round" stroke-linejoin="round"/>
<path d="M501.878 86.0715L503.573 99.3709" stroke="#F2F2F3" stroke-width="5" stroke-linecap="round" stroke-linejoin="round"/>
<path d="M485.597 72.545L486.085 76.3731" stroke="#F2F2F3" stroke-width="5" stroke-linecap="round" stroke-linejoin="round"/>
<path d="M514.248 68.895L514.736 72.723" stroke="#F2F2F3" stroke-width="5" stroke-linecap="round" stroke-linejoin="round"/>
<path d="M535.241 77.8509L517.714 86.3401" stroke="#F2F2F3" stroke-width="5" stroke-linecap="round" stroke-linejoin="round"/>
<path d="M533.893 90.2544L518.905 95.6931" stroke="#F2F2F3" stroke-width="5" stroke-linecap="round" stroke-linejoin="round"/>
<path d="M467.481 86.4834L486.616 90.3019" stroke="#F2F2F3" stroke-width="5" stroke-linecap="round" stroke-linejoin="round"/>
<path d="M471.935 98.1479L487.808 99.6549" stroke="#F2F2F3" stroke-width="5" stroke-linecap="round" stroke-linejoin="round"/>
<path d="M480.126 48.1767C471.882 44.5348 459.259 39.8867 455.809 43.9757C451.179 49.4985 465.209 68.9665 468.07 72.5323C468.181 67.839 469.319 63.2269 471.401 59.0195C473.484 54.8122 476.462 51.1114 480.126 48.1767Z" stroke="#F2F2F3" stroke-width="5" stroke-linecap="round" stroke-linejoin="round"/>
<path d="M531.41 64.4627C533.077 60.2397 541.788 37.9547 535.921 33.7693C531.517 30.6808 520.462 38.3456 513.434 43.9332C517.751 45.8294 521.599 48.6511 524.705 52.1986C527.811 55.7462 530.1 59.9329 531.41 64.4627Z" stroke="#F2F2F3" stroke-width="5" stroke-linecap="round" stroke-linejoin="round"/>
<path d="M516.89 109.465L493.212 112.482C486.503 113.336 479.86 108.729 474.821 102.232C468.857 94.4494 466.973 90.679 467.502 80.6656L467.843 74.5263C467.604 66.469 470.375 58.6117 475.615 52.4868C480.856 46.3619 488.19 42.4087 496.187 41.3982C504.182 40.3713 512.273 42.3593 518.882 46.9746C525.491 51.5899 530.143 58.5015 531.932 66.3613L533.806 72.2585C536.824 81.7799 535.931 85.7839 532.01 94.9861C528.756 102.499 523.481 108.625 516.89 109.465Z" stroke="#F2F2F3" stroke-width="5" stroke-linecap="round" stroke-linejoin="round"/>
</g>
<g clip-path="url(#clip7_24_253)">
<path d="M498.999 307.347C498.617 304.348 501.09 304.554 504.089 304.172L505.668 303.971C508.667 303.589 511.009 302.769 511.391 305.769" stroke="#F2F2F3" stroke-width="5" stroke-linecap="round" stroke-linejoin="round"/>
<path d="M504.878 304.072L506.573 317.371" stroke="#F2F2F3" stroke-width="5" stroke-linecap="round" stroke-linejoin="round"/>
<path d="M488.597 290.545L489.085 294.373" stroke="#F2F2F3" stroke-width="5" stroke-linecap="round" stroke-linejoin="round"/>
<path d="M517.248 286.895L517.736 290.723" stroke="#F2F2F3" stroke-width="5" stroke-linecap="round" stroke-linejoin="round"/>
<path d="M538.241 295.851L520.714 304.34" stroke="#F2F2F3" stroke-width="5" stroke-linecap="round" stroke-linejoin="round"/>
<path d="M536.893 308.254L521.905 313.693" stroke="#F2F2F3" stroke-width="5" stroke-linecap="round" stroke-linejoin="round"/>
<path d="M470.481 304.483L489.616 308.302" stroke="#F2F2F3" stroke-width="5" stroke-linecap="round" stroke-linejoin="round"/>
<path d="M474.935 316.148L490.808 317.655" stroke="#F2F2F3" stroke-width="5" stroke-linecap="round" stroke-linejoin="round"/>
<path d="M483.126 266.177C474.882 262.535 462.259 257.887 458.809 261.976C454.179 267.498 468.209 286.966 471.07 290.532C471.181 285.839 472.319 281.227 474.401 277.02C476.484 272.812 479.462 269.111 483.126 266.177Z" stroke="#F2F2F3" stroke-width="5" stroke-linecap="round" stroke-linejoin="round"/>
<path d="M534.41 282.463C536.077 278.24 544.788 255.955 538.921 251.769C534.517 248.681 523.462 256.346 516.434 261.933C520.751 263.829 524.599 266.651 527.705 270.199C530.811 273.746 533.1 277.933 534.41 282.463Z" stroke="#F2F2F3" stroke-width="5" stroke-linecap="round" stroke-linejoin="round"/>
<path d="M519.89 327.465L496.212 330.482C489.503 331.336 482.86 326.729 477.821 320.232C471.857 312.449 469.973 308.679 470.502 298.666L470.843 292.526C470.604 284.469 473.375 276.612 478.615 270.487C483.856 264.362 491.19 260.409 499.187 259.398C507.182 258.371 515.273 260.359 521.882 264.975C528.491 269.59 533.143 276.501 534.932 284.361L536.806 290.259C539.824 299.78 538.931 303.784 535.01 312.986C531.756 320.499 526.481 326.625 519.89 327.465Z" stroke="#F2F2F3" stroke-width="5" stroke-linecap="round" stroke-linejoin="round"/>
</g>
<g clip-path="url(#clip8_24_253)">
<path d="M578.999 442.347C578.617 439.348 581.09 439.554 584.089 439.172L585.668 438.971C588.667 438.589 591.009 437.769 591.391 440.769" stroke="#F2F2F3" stroke-width="5" stroke-linecap="round" stroke-linejoin="round"/>
<path d="M584.878 439.072L586.573 452.371" stroke="#F2F2F3" stroke-width="5" stroke-linecap="round" stroke-linejoin="round"/>
<path d="M568.597 425.545L569.085 429.373" stroke="#F2F2F3" stroke-width="5" stroke-linecap="round" stroke-linejoin="round"/>
<path d="M597.248 421.895L597.736 425.723" stroke="#F2F2F3" stroke-width="5" stroke-linecap="round" stroke-linejoin="round"/>
<path d="M618.241 430.851L600.714 439.34" stroke="#F2F2F3" stroke-width="5" stroke-linecap="round" stroke-linejoin="round"/>
<path d="M616.893 443.254L601.905 448.693" stroke="#F2F2F3" stroke-width="5" stroke-linecap="round" stroke-linejoin="round"/>
<path d="M550.481 439.483L569.616 443.302" stroke="#F2F2F3" stroke-width="5" stroke-linecap="round" stroke-linejoin="round"/>
<path d="M554.935 451.148L570.808 452.655" stroke="#F2F2F3" stroke-width="5" stroke-linecap="round" stroke-linejoin="round"/>
<path d="M563.126 401.177C554.882 397.535 542.259 392.887 538.809 396.976C534.179 402.498 548.209 421.966 551.07 425.532C551.181 420.839 552.319 416.227 554.401 412.02C556.484 407.812 559.462 404.111 563.126 401.177Z" stroke="#F2F2F3" stroke-width="5" stroke-linecap="round" stroke-linejoin="round"/>
<path d="M614.41 417.463C616.077 413.24 624.788 390.955 618.921 386.769C614.517 383.681 603.462 391.346 596.434 396.933C600.751 398.829 604.599 401.651 607.705 405.199C610.811 408.746 613.1 412.933 614.41 417.463Z" stroke="#F2F2F3" stroke-width="5" stroke-linecap="round" stroke-linejoin="round"/>
<path d="M599.89 462.465L576.212 465.482C569.503 466.336 562.86 461.729 557.821 455.232C551.857 447.449 549.973 443.679 550.502 433.666L550.843 427.526C550.604 419.469 553.375 411.612 558.615 405.487C563.856 399.362 571.19 395.409 579.187 394.398C587.182 393.371 595.273 395.359 601.882 399.975C608.491 404.59 613.143 411.501 614.932 419.361L616.806 425.259C619.824 434.78 618.931 438.784 615.01 447.986C611.756 455.499 606.481 461.625 599.89 462.465Z" stroke="#F2F2F3" stroke-width="5" stroke-linecap="round" stroke-linejoin="round"/>
</g>
<g clip-path="url(#clip9_24_253)">
<path d="M640.999 191.347C640.617 188.348 643.09 188.554 646.089 188.172L647.668 187.971C650.667 187.589 653.009 186.769 653.391 189.769" stroke="#F2F2F3" stroke-width="5" stroke-linecap="round" stroke-linejoin="round"/>
<path d="M646.878 188.072L648.573 201.371" stroke="#F2F2F3" stroke-width="5" stroke-linecap="round" stroke-linejoin="round"/>
<path d="M630.597 174.545L631.085 178.373" stroke="#F2F2F3" stroke-width="5" stroke-linecap="round" stroke-linejoin="round"/>
<path d="M659.248 170.895L659.736 174.723" stroke="#F2F2F3" stroke-width="5" stroke-linecap="round" stroke-linejoin="round"/>
<path d="M680.241 179.851L662.714 188.34" stroke="#F2F2F3" stroke-width="5" stroke-linecap="round" stroke-linejoin="round"/>
<path d="M678.893 192.254L663.905 197.693" stroke="#F2F2F3" stroke-width="5" stroke-linecap="round" stroke-linejoin="round"/>
<path d="M612.481 188.483L631.616 192.302" stroke="#F2F2F3" stroke-width="5" stroke-linecap="round" stroke-linejoin="round"/>
<path d="M616.935 200.148L632.808 201.655" stroke="#F2F2F3" stroke-width="5" stroke-linecap="round" stroke-linejoin="round"/>
<path d="M625.126 150.177C616.882 146.535 604.259 141.887 600.809 145.976C596.179 151.498 610.209 170.966 613.07 174.532C613.181 169.839 614.319 165.227 616.401 161.02C618.484 156.812 621.462 153.111 625.126 150.177Z" stroke="#F2F2F3" stroke-width="5" stroke-linecap="round" stroke-linejoin="round"/>
<path d="M676.41 166.463C678.077 162.24 686.788 139.955 680.921 135.769C676.517 132.681 665.462 140.346 658.434 145.933C662.751 147.829 666.599 150.651 669.705 154.199C672.811 157.746 675.1 161.933 676.41 166.463Z" stroke="#F2F2F3" stroke-width="5" stroke-linecap="round" stroke-linejoin="round"/>
<path d="M661.89 211.465L638.212 214.482C631.503 215.336 624.86 210.729 619.821 204.232C613.857 196.449 611.973 192.679 612.502 182.666L612.843 176.526C612.604 168.469 615.375 160.612 620.615 154.487C625.856 148.362 633.19 144.409 641.187 143.398C649.182 142.371 657.273 144.359 663.882 148.975C670.491 153.59 675.143 160.501 676.932 168.361L678.806 174.259C681.824 183.78 680.931 187.784 677.01 196.986C673.756 204.499 668.481 210.625 661.89 211.465Z" stroke="#F2F2F3" stroke-width="5" stroke-linecap="round" stroke-linejoin="round"/>
</g>
<g clip-path="url(#clip10_24_253)">
<path d="M772.999 331.347C772.617 328.348 775.09 328.554 778.089 328.172L779.668 327.971C782.667 327.589 785.009 326.769 785.391 329.769" stroke="#F2F2F3" stroke-width="5" stroke-linecap="round" stroke-linejoin="round"/>
<path d="M778.878 328.072L780.573 341.371" stroke="#F2F2F3" stroke-width="5" stroke-linecap="round" stroke-linejoin="round"/>
<path d="M762.597 314.545L763.085 318.373" stroke="#F2F2F3" stroke-width="5" stroke-linecap="round" stroke-linejoin="round"/>
<path d="M791.248 310.895L791.736 314.723" stroke="#F2F2F3" stroke-width="5" stroke-linecap="round" stroke-linejoin="round"/>
<path d="M812.241 319.851L794.714 328.34" stroke="#F2F2F3" stroke-width="5" stroke-linecap="round" stroke-linejoin="round"/>
<path d="M810.893 332.254L795.905 337.693" stroke="#F2F2F3" stroke-width="5" stroke-linecap="round" stroke-linejoin="round"/>
<path d="M744.481 328.483L763.616 332.302" stroke="#F2F2F3" stroke-width="5" stroke-linecap="round" stroke-linejoin="round"/>
<path d="M748.935 340.148L764.808 341.655" stroke="#F2F2F3" stroke-width="5" stroke-linecap="round" stroke-linejoin="round"/>
<path d="M757.126 290.177C748.882 286.535 736.259 281.887 732.809 285.976C728.179 291.498 742.209 310.966 745.07 314.532C745.181 309.839 746.319 305.227 748.401 301.02C750.484 296.812 753.462 293.111 757.126 290.177Z" stroke="#F2F2F3" stroke-width="5" stroke-linecap="round" stroke-linejoin="round"/>
<path d="M808.41 306.463C810.077 302.24 818.788 279.955 812.921 275.769C808.517 272.681 797.462 280.346 790.434 285.933C794.751 287.829 798.599 290.651 801.705 294.199C804.811 297.746 807.1 301.933 808.41 306.463Z" stroke="#F2F2F3" stroke-width="5" stroke-linecap="round" stroke-linejoin="round"/>
<path d="M793.89 351.465L770.212 354.482C763.503 355.336 756.86 350.729 751.821 344.232C745.857 336.449 743.973 332.679 744.502 322.666L744.843 316.526C744.604 308.469 747.375 300.612 752.615 294.487C757.856 288.362 765.19 284.409 773.187 283.398C781.182 282.371 789.273 284.359 795.882 288.975C802.491 293.59 807.143 300.501 808.932 308.361L810.806 314.259C813.824 323.78 812.931 327.784 809.01 336.986C805.756 344.499 800.481 350.625 793.89 351.465Z" stroke="#F2F2F3" stroke-width="5" stroke-linecap="round" stroke-linejoin="round"/>
</g>
<g clip-path="url(#clip11_24_253)">
<path d="M784.999 68.3472C784.617 65.3479 787.09 65.5543 790.089 65.1722L791.668 64.9711C794.667 64.589 797.009 63.7692 797.391 66.7685" stroke="#F2F2F3" stroke-width="5" stroke-linecap="round" stroke-linejoin="round"/>
<path d="M790.878 65.0715L792.573 78.3709" stroke="#F2F2F3" stroke-width="5" stroke-linecap="round" stroke-linejoin="round"/>
<path d="M774.597 51.545L775.085 55.3731" stroke="#F2F2F3" stroke-width="5" stroke-linecap="round" stroke-linejoin="round"/>
<path d="M803.248 47.895L803.736 51.723" stroke="#F2F2F3" stroke-width="5" stroke-linecap="round" stroke-linejoin="round"/>
<path d="M824.241 56.8509L806.714 65.3401" stroke="#F2F2F3" stroke-width="5" stroke-linecap="round" stroke-linejoin="round"/>
<path d="M822.893 69.2544L807.905 74.6931" stroke="#F2F2F3" stroke-width="5" stroke-linecap="round" stroke-linejoin="round"/>
<path d="M756.481 65.4834L775.616 69.3019" stroke="#F2F2F3" stroke-width="5" stroke-linecap="round" stroke-linejoin="round"/>
<path d="M760.935 77.1479L776.808 78.6549" stroke="#F2F2F3" stroke-width="5" stroke-linecap="round" stroke-linejoin="round"/>
<path d="M769.126 27.1767C760.882 23.5348 748.259 18.8867 744.809 22.9757C740.179 28.4985 754.209 47.9665 757.07 51.5323C757.181 46.839 758.319 42.2269 760.401 38.0195C762.484 33.8122 765.462 30.1114 769.126 27.1767Z" stroke="#F2F2F3" stroke-width="5" stroke-linecap="round" stroke-linejoin="round"/>
<path d="M820.41 43.4627C822.077 39.2397 830.788 16.9547 824.921 12.7693C820.517 9.68083 809.462 17.3456 802.434 22.9332C806.751 24.8294 810.599 27.6511 813.705 31.1986C816.811 34.7462 819.1 38.9329 820.41 43.4627Z" stroke="#F2F2F3" stroke-width="5" stroke-linecap="round" stroke-linejoin="round"/>
<path d="M805.89 88.4651L782.212 91.4818C775.503 92.3365 768.86 87.7285 763.821 81.2318C757.857 73.4494 755.973 69.679 756.502 59.6656L756.843 53.5263C756.604 45.469 759.375 37.6117 764.615 31.4868C769.856 25.3619 777.19 21.4087 785.187 20.3982C793.182 19.3713 801.273 21.3593 807.882 25.9746C814.491 30.5899 819.143 37.5015 820.932 45.3613L822.806 51.2585C825.824 60.7799 824.931 64.7839 821.01 73.9861C817.756 81.4992 812.481 87.6255 805.89 88.4651Z" stroke="#F2F2F3" stroke-width="5" stroke-linecap="round" stroke-linejoin="round"/>
</g>
<g clip-path="url(#clip12_24_253)">
<path d="M879.999 206.347C879.617 203.348 882.09 203.554 885.089 203.172L886.668 202.971C889.667 202.589 892.009 201.769 892.391 204.769" stroke="#F2F2F3" stroke-width="5" stroke-linecap="round" stroke-linejoin="round"/>
<path d="M885.878 203.072L887.573 216.371" stroke="#F2F2F3" stroke-width="5" stroke-linecap="round" stroke-linejoin="round"/>
<path d="M869.597 189.545L870.085 193.373" stroke="#F2F2F3" stroke-width="5" stroke-linecap="round" stroke-linejoin="round"/>
<path d="M898.248 185.895L898.736 189.723" stroke="#F2F2F3" stroke-width="5" stroke-linecap="round" stroke-linejoin="round"/>
<path d="M919.241 194.851L901.714 203.34" stroke="#F2F2F3" stroke-width="5" stroke-linecap="round" stroke-linejoin="round"/>
<path d="M917.893 207.254L902.905 212.693" stroke="#F2F2F3" stroke-width="5" stroke-linecap="round" stroke-linejoin="round"/>
<path d="M851.481 203.483L870.616 207.302" stroke="#F2F2F3" stroke-width="5" stroke-linecap="round" stroke-linejoin="round"/>
<path d="M855.935 215.148L871.808 216.655" stroke="#F2F2F3" stroke-width="5" stroke-linecap="round" stroke-linejoin="round"/>
<path d="M864.126 165.177C855.882 161.535 843.259 156.887 839.809 160.976C835.179 166.498 849.209 185.966 852.07 189.532C852.181 184.839 853.319 180.227 855.401 176.02C857.484 171.812 860.462 168.111 864.126 165.177Z" stroke="#F2F2F3" stroke-width="5" stroke-linecap="round" stroke-linejoin="round"/>
<path d="M915.41 181.463C917.077 177.24 925.788 154.955 919.921 150.769C915.517 147.681 904.462 155.346 897.434 160.933C901.751 162.829 905.599 165.651 908.705 169.199C911.811 172.746 914.1 176.933 915.41 181.463Z" stroke="#F2F2F3" stroke-width="5" stroke-linecap="round" stroke-linejoin="round"/>
<path d="M900.89 226.465L877.212 229.482C870.503 230.336 863.86 225.729 858.821 219.232C852.857 211.449 850.973 207.679 851.502 197.666L851.843 191.526C851.604 183.469 854.375 175.612 859.615 169.487C864.856 163.362 872.19 159.409 880.187 158.398C888.182 157.371 896.273 159.359 902.882 163.975C909.491 168.59 914.143 175.501 915.932 183.361L917.806 189.259C920.824 198.78 919.931 202.784 916.01 211.986C912.756 219.499 907.481 225.625 900.89 226.465Z" stroke="#F2F2F3" stroke-width="5" stroke-linecap="round" stroke-linejoin="round"/>
</g>
<g clip-path="url(#clip13_24_253)">
<path d="M974.999 430.347C974.617 427.348 977.09 427.554 980.089 427.172L981.668 426.971C984.667 426.589 987.009 425.769 987.391 428.769" stroke="#F2F2F3" stroke-width="5" stroke-linecap="round" stroke-linejoin="round"/>
<path d="M980.878 427.072L982.573 440.371" stroke="#F2F2F3" stroke-width="5" stroke-linecap="round" stroke-linejoin="round"/>
<path d="M964.597 413.545L965.085 417.373" stroke="#F2F2F3" stroke-width="5" stroke-linecap="round" stroke-linejoin="round"/>
<path d="M993.248 409.895L993.736 413.723" stroke="#F2F2F3" stroke-width="5" stroke-linecap="round" stroke-linejoin="round"/>
<path d="M1014.24 418.851L996.714 427.34" stroke="#F2F2F3" stroke-width="5" stroke-linecap="round" stroke-linejoin="round"/>
<path d="M1012.89 431.254L997.905 436.693" stroke="#F2F2F3" stroke-width="5" stroke-linecap="round" stroke-linejoin="round"/>
<path d="M946.481 427.483L965.616 431.302" stroke="#F2F2F3" stroke-width="5" stroke-linecap="round" stroke-linejoin="round"/>
<path d="M950.935 439.148L966.808 440.655" stroke="#F2F2F3" stroke-width="5" stroke-linecap="round" stroke-linejoin="round"/>
<path d="M959.126 389.177C950.882 385.535 938.259 380.887 934.809 384.976C930.179 390.498 944.209 409.966 947.07 413.532C947.181 408.839 948.319 404.227 950.401 400.02C952.484 395.812 955.462 392.111 959.126 389.177Z" stroke="#F2F2F3" stroke-width="5" stroke-linecap="round" stroke-linejoin="round"/>
<path d="M1010.41 405.463C1012.08 401.24 1020.79 378.955 1014.92 374.769C1010.52 371.681 999.462 379.346 992.434 384.933C996.751 386.829 1000.6 389.651 1003.71 393.199C1006.81 396.746 1009.1 400.933 1010.41 405.463Z" stroke="#F2F2F3" stroke-width="5" stroke-linecap="round" stroke-linejoin="round"/>
<path d="M995.89 450.465L972.212 453.482C965.503 454.336 958.86 449.729 953.821 443.232C947.857 435.449 945.973 431.679 946.502 421.666L946.843 415.526C946.604 407.469 949.375 399.612 954.615 393.487C959.856 387.362 967.19 383.409 975.187 382.398C983.182 381.371 991.273 383.359 997.882 387.975C1004.49 392.59 1009.14 399.501 1010.93 407.361L1012.81 413.259C1015.82 422.78 1014.93 426.784 1011.01 435.986C1007.76 443.499 1002.48 449.625 995.89 450.465Z" stroke="#F2F2F3" stroke-width="5" stroke-linecap="round" stroke-linejoin="round"/>
</g>
<g clip-path="url(#clip14_24_253)">
<path d="M1016 89.3472C1015.62 86.3479 1018.09 86.5543 1021.09 86.1722L1022.67 85.9711C1025.67 85.589 1028.01 84.7692 1028.39 87.7685" stroke="#F2F2F3" stroke-width="5" stroke-linecap="round" stroke-linejoin="round"/>
<path d="M1021.88 86.0715L1023.57 99.3709" stroke="#F2F2F3" stroke-width="5" stroke-linecap="round" stroke-linejoin="round"/>
<path d="M1005.6 72.545L1006.08 76.3731" stroke="#F2F2F3" stroke-width="5" stroke-linecap="round" stroke-linejoin="round"/>
<path d="M1034.25 68.895L1034.74 72.723" stroke="#F2F2F3" stroke-width="5" stroke-linecap="round" stroke-linejoin="round"/>
<path d="M1055.24 77.8509L1037.71 86.3401" stroke="#F2F2F3" stroke-width="5" stroke-linecap="round" stroke-linejoin="round"/>
<path d="M1053.89 90.2544L1038.91 95.6931" stroke="#F2F2F3" stroke-width="5" stroke-linecap="round" stroke-linejoin="round"/>
<path d="M987.481 86.4834L1006.62 90.3019" stroke="#F2F2F3" stroke-width="5" stroke-linecap="round" stroke-linejoin="round"/>
<path d="M991.935 98.1479L1007.81 99.6549" stroke="#F2F2F3" stroke-width="5" stroke-linecap="round" stroke-linejoin="round"/>
<path d="M1000.13 48.1767C991.882 44.5348 979.259 39.8867 975.809 43.9757C971.179 49.4985 985.209 68.9665 988.07 72.5323C988.181 67.839 989.319 63.2269 991.401 59.0195C993.484 54.8122 996.462 51.1114 1000.13 48.1767Z" stroke="#F2F2F3" stroke-width="5" stroke-linecap="round" stroke-linejoin="round"/>
<path d="M1051.41 64.4627C1053.08 60.2397 1061.79 37.9547 1055.92 33.7693C1051.52 30.6808 1040.46 38.3456 1033.43 43.9332C1037.75 45.8294 1041.6 48.6511 1044.71 52.1986C1047.81 55.7462 1050.1 59.9329 1051.41 64.4627Z" stroke="#F2F2F3" stroke-width="5" stroke-linecap="round" stroke-linejoin="round"/>
<path d="M1036.89 109.465L1013.21 112.482C1006.5 113.336 999.86 108.729 994.821 102.232C988.857 94.4494 986.973 90.679 987.502 80.6656L987.843 74.5263C987.604 66.469 990.375 58.6117 995.615 52.4868C1000.86 46.3619 1008.19 42.4087 1016.19 41.3982C1024.18 40.3713 1032.27 42.3593 1038.88 46.9746C1045.49 51.5899 1050.14 58.5015 1051.93 66.3613L1053.81 72.2585C1056.82 81.7799 1055.93 85.7839 1052.01 94.9861C1048.76 102.499 1043.48 108.625 1036.89 109.465Z" stroke="#F2F2F3" stroke-width="5" stroke-linecap="round" stroke-linejoin="round"/>
</g>
<defs>
<clipPath id="clip0_24_253">
<rect width="95.4794" height="95.4794" fill="white" transform="translate(90 406.067) rotate(-7.26036)"/>
</clipPath>
<clipPath id="clip1_24_253">
<rect width="95.4794" height="95.4794" fill="white" transform="translate(131 251.067) rotate(-7.26036)"/>
</clipPath>
<clipPath id="clip2_24_253">
<rect width="95.4794" height="95.4794" fill="white" transform="translate(77 96.0665) rotate(-7.26036)"/>
</clipPath>
<clipPath id="clip3_24_253">
<rect width="95.4794" height="95.4794" fill="white" transform="translate(238 33.0665) rotate(-7.26036)"/>
</clipPath>
<clipPath id="clip4_24_253">
<rect width="95.4794" height="95.4794" fill="white" transform="translate(279 352.067) rotate(-7.26036)"/>
</clipPath>
<clipPath id="clip5_24_253">
<rect width="95.4794" height="95.4794" fill="white" transform="translate(302 168.067) rotate(-7.26036)"/>
</clipPath>
<clipPath id="clip6_24_253">
<rect width="95.4794" height="95.4794" fill="white" transform="translate(447 33.0665) rotate(-7.26036)"/>
</clipPath>
<clipPath id="clip7_24_253">
<rect width="95.4794" height="95.4794" fill="white" transform="translate(450 251.067) rotate(-7.26036)"/>
</clipPath>
<clipPath id="clip8_24_253">
<rect width="95.4794" height="95.4794" fill="white" transform="translate(530 386.067) rotate(-7.26036)"/>
</clipPath>
<clipPath id="clip9_24_253">
<rect width="95.4794" height="95.4794" fill="white" transform="translate(592 135.067) rotate(-7.26036)"/>
</clipPath>
<clipPath id="clip10_24_253">
<rect width="95.4794" height="95.4794" fill="white" transform="translate(724 275.067) rotate(-7.26036)"/>
</clipPath>
<clipPath id="clip11_24_253">
<rect width="95.4794" height="95.4794" fill="white" transform="translate(736 12.0665) rotate(-7.26036)"/>
</clipPath>
<clipPath id="clip12_24_253">
<rect width="95.4794" height="95.4794" fill="white" transform="translate(831 150.067) rotate(-7.26036)"/>
</clipPath>
<clipPath id="clip13_24_253">
<rect width="95.4794" height="95.4794" fill="white" transform="translate(926 374.067) rotate(-7.26036)"/>
</clipPath>
<clipPath id="clip14_24_253">
<rect width="95.4794" height="95.4794" fill="white" transform="translate(967 33.0665) rotate(-7.26036)"/>
</clipPath>
</defs>
</svg>
