<svg width="158" height="158" viewBox="0 0 158 158" fill="none" xmlns="http://www.w3.org/2000/svg">
<g filter="url(#filter0_d_79_677)">
<rect x="4" width="150" height="150" rx="30" fill="white"/>
</g>
<path fill-rule="evenodd" clip-rule="evenodd" d="M114.512 80.3821C112.948 81.6331 111.726 83.557 111.214 85.7443C110.916 87.0135 110.85 88.279 110.963 89.5254L118.131 91.2059L122.093 86.8901L122.407 93.4154L125.189 91.1676L130.545 92.4232L130.158 94.0739L125.61 93.0076L120.874 96.8335L120.595 91.0297L118.71 93.083L106.672 90.2609L107.059 88.6102L109.234 89.1202C109.17 87.8873 109.265 86.6273 109.563 85.3574C110.158 82.8191 111.577 80.5581 113.453 79.0579C115.335 77.5536 117.715 76.7898 120.171 77.3654C123.063 78.0434 124.882 80.1794 125.832 82.8145C127.854 80.8764 130.433 79.7713 133.325 80.4493C135.781 81.025 137.574 82.7676 138.591 84.9513C139.605 87.1291 139.871 89.7853 139.276 92.3232C138.002 97.7561 133.189 101.414 128.915 103.679C126.753 104.824 124.672 105.644 123.133 106.178C122.363 106.445 121.726 106.641 121.28 106.771C121.056 106.836 120.881 106.885 120.759 106.917C120.699 106.933 120.652 106.946 120.62 106.954L120.582 106.963L120.572 106.966L120.568 106.967C120.568 106.967 120.567 106.967 120.363 106.145C119.83 106.804 119.83 106.804 119.83 106.804L119.826 106.801L119.816 106.792L119.779 106.762C119.747 106.736 119.701 106.698 119.642 106.648C119.525 106.549 119.356 106.403 119.144 106.215C118.721 105.838 118.128 105.29 117.44 104.594C116.066 103.207 114.302 101.224 112.762 98.8545C111.94 97.5908 111.178 96.2108 110.573 94.7468C110.394 94.3142 110.599 93.8183 111.032 93.6394C111.464 93.4604 111.96 93.6661 112.139 94.0988C112.698 95.4482 113.407 96.7358 114.184 97.9303C115.642 100.173 117.323 102.066 118.645 103.402C119.304 104.068 119.871 104.592 120.272 104.949C120.385 105.05 120.485 105.137 120.57 105.211C120.641 105.191 120.719 105.168 120.806 105.143C121.228 105.02 121.838 104.833 122.578 104.576C124.06 104.062 126.056 103.275 128.121 102.181C132.298 99.9672 136.528 96.6175 137.625 91.9362C138.138 89.7492 137.899 87.4829 137.054 85.6669C136.211 83.8569 134.791 82.5343 132.938 82.1C130.377 81.4997 128 82.7019 126.095 85.0252L125.001 86.3605L124.614 84.6778C123.94 81.7499 122.345 79.6165 119.784 79.0162C117.931 78.5819 116.071 79.1353 114.512 80.3821ZM120.363 106.145L119.83 106.804L120.158 107.069L120.568 106.967L120.363 106.145Z" fill="#C61A1A"/>
<path d="M120.568 106.967L120.572 106.966L120.582 106.963L120.62 106.954C120.652 106.946 120.699 106.933 120.759 106.917C120.881 106.885 121.056 106.836 121.28 106.771C121.726 106.641 122.363 106.445 123.133 106.178C124.672 105.644 126.753 104.824 128.915 103.679C133.189 101.414 138.002 97.7561 139.276 92.3232C139.871 89.7853 139.605 87.1291 138.591 84.9513C137.574 82.7676 135.781 81.025 133.325 80.4493C130.433 79.7713 127.854 80.8764 125.832 82.8145C124.882 80.1794 123.063 78.0434 120.171 77.3654C117.715 76.7898 115.335 77.5536 113.453 79.0579C111.577 80.5581 110.158 82.8191 109.563 85.3574C109.265 86.6273 109.17 87.8873 109.234 89.1202L107.059 88.6102L106.672 90.2609L118.71 93.083L120.595 91.0297L120.874 96.8335L125.61 93.0076L130.158 94.0739L130.545 92.4232L125.189 91.1676L122.407 93.4154L122.093 86.8901L118.131 91.2059L110.963 89.5254C110.85 88.279 110.916 87.0135 111.214 85.7443C111.726 83.557 112.948 81.6331 114.512 80.3821C116.071 79.1353 117.931 78.5819 119.784 79.0162C122.345 79.6165 123.94 81.7499 124.614 84.6778L125.001 86.3605L126.095 85.0252C128 82.7019 130.377 81.4997 132.938 82.1C134.791 82.5343 136.211 83.8569 137.054 85.6669C137.899 87.4829 138.138 89.7492 137.625 91.9362C136.528 96.6175 132.298 99.9672 128.121 102.181C126.056 103.275 124.06 104.062 122.578 104.576C121.838 104.833 121.228 105.02 120.806 105.143C120.719 105.168 120.641 105.191 120.57 105.211C120.485 105.137 120.385 105.05 120.272 104.949C119.871 104.592 119.304 104.068 118.645 103.402C117.323 102.066 115.642 100.173 114.184 97.9303C113.407 96.7358 112.698 95.4482 112.139 94.0988C111.96 93.6661 111.464 93.4604 111.032 93.6394C110.599 93.8183 110.394 94.3142 110.573 94.7468C111.178 96.2108 111.94 97.5908 112.762 98.8545C114.302 101.224 116.066 103.207 117.44 104.594C118.128 105.29 118.721 105.838 119.144 106.215C119.356 106.403 119.525 106.549 119.642 106.648C119.701 106.698 119.747 106.736 119.779 106.762L119.816 106.792L119.826 106.801L119.83 106.804M120.568 106.967C120.568 106.967 120.567 106.967 120.363 106.145M120.568 106.967L120.158 107.069L119.83 106.804M120.568 106.967L120.363 106.145M120.363 106.145C119.83 106.804 119.83 106.804 119.83 106.804M120.363 106.145L119.83 106.804" stroke="#C61A1A" stroke-width="0.9"/>
<g clip-path="url(#clip0_79_677)">
<path d="M64.3436 77.311C64.0142 74.7254 66.1458 74.9033 68.7314 74.5739L70.0922 74.4006C72.6778 74.0711 74.6967 73.3645 75.0261 75.9501" stroke="#1E1E1E" stroke-width="4" stroke-linecap="round" stroke-linejoin="round"/>
<path d="M69.4121 74.4872L70.8727 85.9522" stroke="#1E1E1E" stroke-width="4" stroke-linecap="round" stroke-linejoin="round"/>
<path d="M55.3765 62.8265L55.7969 66.1265" stroke="#1E1E1E" stroke-width="4" stroke-linecap="round" stroke-linejoin="round"/>
<path d="M80.0757 59.6798L80.4961 62.9798" stroke="#1E1E1E" stroke-width="4" stroke-linecap="round" stroke-linejoin="round"/>
<path d="M98.1729 67.4004L83.0633 74.7187" stroke="#1E1E1E" stroke-width="4" stroke-linecap="round" stroke-linejoin="round"/>
<path d="M97.0111 78.0931L84.0904 82.7816" stroke="#1E1E1E" stroke-width="4" stroke-linecap="round" stroke-linejoin="round"/>
<path d="M39.7593 74.8423L56.2551 78.1341" stroke="#1E1E1E" stroke-width="4" stroke-linecap="round" stroke-linejoin="round"/>
<path d="M43.5986 84.8979L57.2822 86.197" stroke="#1E1E1E" stroke-width="4" stroke-linecap="round" stroke-linejoin="round"/>
<path d="M50.6604 41.8192C43.5533 38.6796 32.6709 34.6726 29.6972 38.1976C25.7056 42.9586 37.8007 59.7414 40.2667 62.8153C40.363 58.7694 41.3433 54.7934 43.1388 51.1664C44.9342 47.5394 47.5015 44.349 50.6604 41.8192Z" stroke="#1E1E1E" stroke-width="4" stroke-linecap="round" stroke-linejoin="round"/>
<path d="M94.8701 55.8589C96.3078 52.2185 103.817 33.0072 98.7595 29.3991C94.963 26.7366 85.4329 33.3442 79.374 38.1611C83.0956 39.7958 86.4127 42.2283 89.0904 45.2865C91.7682 48.3447 93.7413 51.9539 94.8701 55.8589Z" stroke="#1E1E1E" stroke-width="4" stroke-linecap="round" stroke-linejoin="round"/>
<path d="M82.3532 94.6541L61.9408 97.2546C56.1572 97.9914 50.4306 94.0191 46.087 88.4185C40.9452 81.7095 39.321 78.4591 39.7771 69.8269L40.0709 64.5344C39.865 57.5885 42.2538 50.8149 46.7715 45.5348C51.2891 40.2547 57.6116 36.8468 64.5057 35.9757C71.3981 35.0904 78.3731 36.8042 84.0703 40.783C89.7675 44.7617 93.7784 50.7199 95.3206 57.4956L96.9363 62.5794C99.5378 70.7875 98.7675 74.2392 95.3874 82.1722C92.5824 88.6489 88.0347 93.9302 82.3532 94.6541Z" stroke="#1E1E1E" stroke-width="4" stroke-linecap="round" stroke-linejoin="round"/>
</g>
<path d="M52.7513 124.475H50.2445V119.469H44.849V124.475H42.3421V112.497H44.849V117.328H50.2445V112.497H52.7513V124.475ZM63.2588 122.333V124.475H55.3232V112.497H63.2588V114.638H57.8301V117.436H62.9517V119.419H57.8301V122.333H63.2588ZM64.7433 120.955H67.1672C67.1782 121.437 67.3276 121.821 67.6154 122.109C67.9087 122.397 68.2961 122.541 68.7775 122.541C69.2922 122.541 69.6851 122.388 69.9562 122.084C70.2329 121.774 70.3713 121.326 70.3713 120.739V112.497H72.8781V120.756C72.8781 122.04 72.5184 123.033 71.799 123.736C71.0851 124.433 70.089 124.782 68.8107 124.782C67.5767 124.782 66.5889 124.436 65.8473 123.744C65.1113 123.052 64.7433 122.123 64.7433 120.955ZM85.7334 124.475H82.7036L78.6528 112.497H81.4834L84.2061 121.652H84.3555L87.0283 112.497H89.7261L85.7334 124.475ZM99.3786 122.333V124.475H91.443V112.497H99.3786V114.638H93.9499V117.436H99.0714V119.419H93.9499V122.333H99.3786ZM107.097 124.475H104.59V114.638H100.996V112.497H110.691V114.638H107.097V124.475ZM112.823 112.497H115.479L115.255 120.532H113.039L112.823 112.497ZM113.047 124.35C112.776 124.096 112.641 123.75 112.641 123.312C112.641 122.875 112.776 122.529 113.047 122.275C113.319 122.02 113.687 121.893 114.151 121.893C114.622 121.893 114.99 122.02 115.255 122.275C115.527 122.524 115.662 122.87 115.662 123.312C115.662 123.75 115.527 124.096 115.255 124.35C114.99 124.599 114.622 124.724 114.151 124.724C113.687 124.724 113.319 124.599 113.047 124.35Z" fill="#1E1E1E"/>
<defs>
<filter id="filter0_d_79_677" x="0" y="0" width="158" height="158" filterUnits="userSpaceOnUse" color-interpolation-filters="sRGB">
<feFlood flood-opacity="0" result="BackgroundImageFix"/>
<feColorMatrix in="SourceAlpha" type="matrix" values="0 0 0 0 0 0 0 0 0 0 0 0 0 0 0 0 0 0 127 0" result="hardAlpha"/>
<feOffset dy="4"/>
<feGaussianBlur stdDeviation="2"/>
<feComposite in2="hardAlpha" operator="out"/>
<feColorMatrix type="matrix" values="0 0 0 0 0 0 0 0 0 0 0 0 0 0 0 0 0 0 0.25 0"/>
<feBlend mode="normal" in2="BackgroundImageFix" result="effect1_dropShadow_79_677"/>
<feBlend mode="normal" in="SourceGraphic" in2="effect1_dropShadow_79_677" result="shape"/>
</filter>
<clipPath id="clip0_79_677">
<rect width="82.3098" height="82.3098" fill="white" transform="translate(22.103 28.7932) rotate(-7.26036)"/>
</clipPath>
</defs>
</svg>
