<svg width="80" height="80" viewBox="0 0 80 80" fill="none" xmlns="http://www.w3.org/2000/svg">
<g filter="url(#filter0_d_61_600)">
<rect x="4" width="72" height="72" rx="15" fill="white"/>
</g>
<path fill-rule="evenodd" clip-rule="evenodd" d="M57.0452 38.5835C56.2942 39.184 55.708 40.1075 55.4618 41.1574C55.319 41.7666 55.2872 42.374 55.3415 42.9723L58.7823 43.7789L60.684 41.7073L60.8346 44.8395L62.1703 43.7605L64.7411 44.3632L64.5553 45.1555L62.3721 44.6437L60.0986 46.4802L59.9647 43.6943L59.06 44.6799L53.2818 43.3253L53.4676 42.533L54.5118 42.7778C54.4811 42.186 54.5266 41.5812 54.6695 40.9716C54.9551 39.7532 55.6364 38.668 56.5369 37.9479C57.4399 37.2258 58.5827 36.8592 59.7614 37.1355C61.1494 37.4609 62.0226 38.4862 62.4787 39.751C63.4495 38.8208 64.6874 38.2903 66.0755 38.6157C67.2542 38.8921 68.1149 39.7285 68.6029 40.7767C69.0896 41.8221 69.2174 43.097 68.9319 44.3152C68.3205 46.923 66.0098 48.6788 63.9583 49.766C62.9208 50.3158 61.9219 50.7094 61.1833 50.9655C60.8135 51.0937 60.5078 51.1879 60.2935 51.2502C60.1864 51.2814 60.102 51.3047 60.0439 51.3203C60.0148 51.3281 59.9923 51.334 59.9767 51.338L59.9587 51.3425L59.9537 51.3438L59.9518 51.3443C59.9518 51.3443 59.9514 51.3444 59.8534 50.9494C59.5979 51.2661 59.5978 51.266 59.5978 51.266L59.5957 51.2643L59.5908 51.2603L59.5731 51.2458C59.5579 51.2333 59.5359 51.215 59.5077 51.1912C59.4514 51.1435 59.3701 51.0737 59.2686 50.9833C59.0655 50.8026 58.7807 50.5391 58.4504 50.2054C57.7911 49.5393 56.9445 48.5875 56.2051 47.4502C55.8107 46.8437 55.4448 46.1813 55.1541 45.4786C55.0682 45.2709 55.1669 45.0329 55.3746 44.947C55.5823 44.8611 55.8203 44.9598 55.9062 45.1675C56.1741 45.8152 56.5146 46.4332 56.8874 47.0066C57.5875 48.0833 58.3945 48.992 59.0289 49.6329C59.3455 49.9527 59.6176 50.2044 59.8097 50.3754C59.8642 50.424 59.9123 50.466 59.953 50.5012C59.9868 50.4917 60.0246 50.4809 60.0661 50.4688C60.2689 50.4098 60.5614 50.3198 60.9167 50.1966C61.6282 49.9499 62.5864 49.572 63.5772 49.0469C65.5822 47.9843 67.6127 46.3765 68.1395 44.1294C68.3856 43.0797 68.2709 41.9919 67.8651 41.1202C67.4606 40.2514 66.779 39.6166 65.8897 39.4081C64.6604 39.1199 63.5193 39.697 62.6051 40.8122L62.0797 41.4531L61.8939 40.6454C61.5706 39.2401 60.8048 38.216 59.5756 37.9278C58.6864 37.7194 57.7936 37.985 57.0452 38.5835ZM59.8534 50.9494L59.5978 51.266L59.7553 51.3931L59.9518 51.3443L59.8534 50.9494Z" fill="#C61A1A"/>
<path d="M59.9518 51.3443L59.9537 51.3438L59.9587 51.3425L59.9767 51.338C59.9923 51.334 60.0148 51.3281 60.0439 51.3203C60.102 51.3047 60.1864 51.2814 60.2935 51.2502C60.5078 51.1879 60.8135 51.0937 61.1833 50.9655C61.9219 50.7094 62.9208 50.3158 63.9583 49.766C66.0098 48.6788 68.3205 46.923 68.9319 44.3152C69.2174 43.097 69.0896 41.8221 68.6029 40.7767C68.1149 39.7285 67.2542 38.8921 66.0755 38.6157C64.6874 38.2903 63.4495 38.8208 62.4787 39.751C62.0226 38.4862 61.1494 37.4609 59.7614 37.1355C58.5827 36.8592 57.4399 37.2258 56.5369 37.9479C55.6364 38.668 54.9551 39.7532 54.6695 40.9716C54.5266 41.5812 54.4811 42.186 54.5118 42.7778L53.4676 42.533L53.2818 43.3253L59.06 44.6799L59.9647 43.6943L60.0986 46.4802L62.3721 44.6437L64.5553 45.1555L64.7411 44.3632L62.1703 43.7605L60.8346 44.8395L60.684 41.7073L58.7823 43.7789L55.3415 42.9723C55.2872 42.374 55.319 41.7666 55.4618 41.1574C55.708 40.1075 56.2942 39.184 57.0452 38.5835C57.7936 37.985 58.6864 37.7194 59.5756 37.9278C60.8048 38.216 61.5706 39.2401 61.8939 40.6454L62.0797 41.4531L62.6051 40.8122C63.5193 39.697 64.6604 39.1199 65.8897 39.4081C66.779 39.6166 67.4606 40.2514 67.8651 41.1202C68.2709 41.9919 68.3856 43.0797 68.1395 44.1294C67.6127 46.3765 65.5822 47.9843 63.5772 49.0469C62.5864 49.572 61.6282 49.9499 60.9167 50.1966C60.5614 50.3198 60.2689 50.4098 60.0661 50.4688C60.0246 50.4809 59.9868 50.4917 59.953 50.5012C59.9123 50.466 59.8642 50.424 59.8097 50.3754C59.6176 50.2044 59.3455 49.9527 59.0289 49.6329C58.3945 48.992 57.5875 48.0833 56.8874 47.0066C56.5146 46.4332 56.1741 45.8152 55.9062 45.1675C55.8203 44.9598 55.5823 44.8611 55.3746 44.947C55.1669 45.0329 55.0682 45.2709 55.1541 45.4786C55.4448 46.1813 55.8107 46.8437 56.2051 47.4502C56.9445 48.5875 57.7911 49.5393 58.4504 50.2054C58.7807 50.5391 59.0655 50.8026 59.2686 50.9833C59.3701 51.0737 59.4514 51.1435 59.5077 51.1912C59.5359 51.215 59.5579 51.2333 59.5731 51.2458L59.5908 51.2603L59.5957 51.2643L59.5978 51.266M59.9518 51.3443C59.9518 51.3443 59.9514 51.3444 59.8534 50.9494M59.9518 51.3443L59.7553 51.3931L59.5978 51.266M59.9518 51.3443L59.8534 50.9494M59.8534 50.9494C59.5979 51.2661 59.5978 51.266 59.5978 51.266M59.8534 50.9494L59.5978 51.266" stroke="#C61A1A" stroke-width="0.6"/>
<g clip-path="url(#clip0_61_600)">
<path d="M32.9651 37.1095C32.807 35.8684 33.8302 35.9538 35.0712 35.7957L35.7244 35.7125C36.9655 35.5543 37.9346 35.2151 38.0927 36.4562" stroke="#1E1E1E" stroke-width="2" stroke-linecap="round" stroke-linejoin="round"/>
<path d="M35.3977 35.7539L36.0988 41.2571" stroke="#1E1E1E" stroke-width="2" stroke-linecap="round" stroke-linejoin="round"/>
<path d="M28.6606 30.1567L28.8624 31.7407" stroke="#1E1E1E" stroke-width="2" stroke-linecap="round" stroke-linejoin="round"/>
<path d="M40.5164 28.6465L40.7182 30.2305" stroke="#1E1E1E" stroke-width="2" stroke-linecap="round" stroke-linejoin="round"/>
<path d="M49.2028 32.3521L41.9503 35.8649" stroke="#1E1E1E" stroke-width="2" stroke-linecap="round" stroke-linejoin="round"/>
<path d="M48.6453 37.4849L42.4433 39.7354" stroke="#1E1E1E" stroke-width="2" stroke-linecap="round" stroke-linejoin="round"/>
<path d="M21.1643 35.9243L29.0823 37.5044" stroke="#1E1E1E" stroke-width="2" stroke-linecap="round" stroke-linejoin="round"/>
<path d="M23.0073 40.751L29.5754 41.3746" stroke="#1E1E1E" stroke-width="2" stroke-linecap="round" stroke-linejoin="round"/>
<path d="M26.3969 20.0734C22.9855 18.5664 17.762 16.6431 16.3346 18.3351C14.4186 20.6203 20.2243 28.6761 21.408 30.1516C21.4542 28.2095 21.9247 26.3011 22.7865 24.5601C23.6484 22.8191 24.8806 21.2878 26.3969 20.0734Z" stroke="#1E1E1E" stroke-width="2" stroke-linecap="round" stroke-linejoin="round"/>
<path d="M47.6175 26.8122C48.3076 25.0648 51.9122 15.8434 49.4844 14.1115C47.6621 12.8335 43.0876 16.0052 40.1793 18.3173C41.9657 19.1019 43.5579 20.2695 44.8432 21.7375C46.1286 23.2054 47.0756 24.9379 47.6175 26.8122Z" stroke="#1E1E1E" stroke-width="2" stroke-linecap="round" stroke-linejoin="round"/>
<path d="M41.6096 45.4341L31.8116 46.6824C29.0355 47.0361 26.2868 45.1294 24.2018 42.4411C21.7337 39.2208 20.9541 37.6606 21.173 33.5171L21.3141 30.9767C21.2152 27.6427 22.3619 24.3913 24.5303 21.8569C26.6988 19.3225 29.7336 17.6867 33.0428 17.2685C36.3511 16.8436 39.6991 17.6662 42.4338 19.576C45.1685 21.4858 47.0937 24.3457 47.834 27.5981L48.6095 30.0383C49.8582 33.9782 49.4885 35.635 47.866 39.4428C46.5196 42.5517 44.3367 45.0867 41.6096 45.4341Z" stroke="#1E1E1E" stroke-width="2" stroke-linecap="round" stroke-linejoin="round"/>
</g>
<path d="M27.2487 59H26.069V56.6445H23.5299V59H22.3503V53.3633H23.5299V55.6367H26.069V53.3633H27.2487V59ZM32.0169 57.9922V59H28.2826V53.3633H32.0169V54.3711H29.4622V55.6875H31.8724V56.6211H29.4622V57.9922H32.0169ZM32.5391 57.3438H33.6797C33.6849 57.5703 33.7552 57.7513 33.8906 57.8867C34.0286 58.0221 34.2109 58.0898 34.4375 58.0898C34.6797 58.0898 34.8646 58.0182 34.9922 57.875C35.1224 57.7292 35.1875 57.5182 35.1875 57.2422V53.3633H36.3672V57.25C36.3672 57.8542 36.1979 58.3216 35.8594 58.6523C35.5234 58.9805 35.0547 59.1445 34.4531 59.1445C33.8724 59.1445 33.4076 58.9818 33.0586 58.6562C32.7122 58.3307 32.5391 57.8932 32.5391 57.3438ZM42.0638 59H40.638L38.7318 53.3633H40.0638L41.3451 57.6719H41.4154L42.6732 53.3633H43.9427L42.0638 59ZM48.3086 57.9922V59H44.5742V53.3633H48.3086V54.3711H45.7539V55.6875H48.1641V56.6211H45.7539V57.9922H48.3086ZM51.7643 59H50.5846V54.3711H48.8932V53.3633H53.4557V54.3711H51.7643V59ZM54.2826 53.3633H55.5326L55.4271 57.1445H54.3841L54.2826 53.3633ZM54.388 58.9414C54.2604 58.8216 54.1966 58.6589 54.1966 58.4531C54.1966 58.2474 54.2604 58.0846 54.388 57.9648C54.5156 57.8451 54.6888 57.7852 54.9076 57.7852C55.1289 57.7852 55.3021 57.8451 55.4271 57.9648C55.5547 58.082 55.6185 58.2448 55.6185 58.4531C55.6185 58.6589 55.5547 58.8216 55.4271 58.9414C55.3021 59.0586 55.1289 59.1172 54.9076 59.1172C54.6888 59.1172 54.5156 59.0586 54.388 58.9414Z" fill="#1E1E1E"/>
<defs>
<filter id="filter0_d_61_600" x="0" y="0" width="80" height="80" filterUnits="userSpaceOnUse" color-interpolation-filters="sRGB">
<feFlood flood-opacity="0" result="BackgroundImageFix"/>
<feColorMatrix in="SourceAlpha" type="matrix" values="0 0 0 0 0 0 0 0 0 0 0 0 0 0 0 0 0 0 127 0" result="hardAlpha"/>
<feOffset dy="4"/>
<feGaussianBlur stdDeviation="2"/>
<feComposite in2="hardAlpha" operator="out"/>
<feColorMatrix type="matrix" values="0 0 0 0 0 0 0 0 0 0 0 0 0 0 0 0 0 0 0.25 0"/>
<feBlend mode="normal" in2="BackgroundImageFix" result="effect1_dropShadow_61_600"/>
<feBlend mode="normal" in="SourceGraphic" in2="effect1_dropShadow_61_600" result="shape"/>
</filter>
<clipPath id="clip0_61_600">
<rect width="39.5087" height="39.5087" fill="white" transform="translate(12.6895 13.8208) rotate(-7.26036)"/>
</clipPath>
</defs>
</svg>
