<svg width="55" height="55" viewBox="0 0 55 55" fill="none" xmlns="http://www.w3.org/2000/svg">
<g filter="url(#filter0_d_42_1967)">
<path d="M27.5 47C40.4787 47 51 36.4787 51 23.5C51 10.5213 40.4787 0 27.5 0C14.5213 0 4 10.5213 4 23.5C4 36.4787 14.5213 47 27.5 47Z" fill="#27AAE1"/>
<path fill-rule="evenodd" clip-rule="evenodd" d="M43.9934 40.2375C39.5585 44.6088 33.5697 47.0409 27.3428 46.9994C21.1158 46.9579 15.16 44.4462 10.7838 40.0162C11.3435 38.4684 12.4305 37.1674 13.854 36.3413C14.8135 35.632 15.8538 35.0392 16.9531 34.5754C15.2815 28.8312 19.8256 26.0074 21.5642 25.1944C21.5642 27.8464 24.0473 26.0865 27.1289 26.12C29.666 26.1481 34.6831 28.7019 34.6831 25.3328C37.4742 26.1588 40.5163 31.4778 38.4226 34.7458C39.281 35.1655 40.092 35.6759 40.8418 36.2683C42.3075 37.201 43.4174 38.5984 43.9934 40.2375Z" fill="#677079"/>
<path fill-rule="evenodd" clip-rule="evenodd" d="M22.2768 29.4168L33.6237 29.4853V32.0992L33.6184 32.1395C33.6105 32.2579 33.5927 32.3754 33.5651 32.4908L33.5271 32.7502L33.5043 32.8042C32.7696 36.663 29.5549 38.1544 27.57 39.1933C25.4785 38.054 22.5217 36.0014 22.2867 32.3699L22.2768 32.3251V32.1729C22.2751 32.1205 22.2741 32.068 22.2737 32.0155C22.2737 32.0429 22.276 32.0688 22.2768 32.0961V29.4168Z" fill="#F9DCA4"/>
<path fill-rule="evenodd" clip-rule="evenodd" d="M33.6245 29.3689V32.4148C33.6222 32.6971 33.5981 32.9789 33.5522 33.2574C33.4946 33.6023 33.3976 33.9394 33.2632 34.2621C29.3207 37.2395 23.0388 34.7975 22.0357 29.7119L33.6245 29.3689Z" fill="black" fill-opacity="0.2"/>
<path fill-rule="evenodd" clip-rule="evenodd" d="M17.7684 19.1917C14.0115 20.1575 17.2056 24.7358 19.5686 24.7161C18.6157 23.0089 18.0042 21.1325 17.7684 19.1917ZM37.3388 19.1917C41.0958 20.1575 37.9016 24.7358 35.5379 24.7153C36.4911 23.0085 37.1028 21.1323 37.3388 19.1917Z" fill="#F9DCA4"/>
<path fill-rule="evenodd" clip-rule="evenodd" d="M27.373 8.64024C42.9811 8.64024 36.8985 33.316 27.373 33.316C18.3761 33.316 11.7649 8.64024 27.373 8.64024Z" fill="#FFE8BE"/>
<path fill-rule="evenodd" clip-rule="evenodd" d="M20.0066 16.8112C20.1398 16.9572 20.2385 17.1311 20.2956 17.3203C20.3527 17.5094 20.3666 17.709 20.3364 17.9042C20.3062 18.0994 20.2326 18.2854 20.121 18.4485C20.0095 18.6115 19.8628 18.7475 19.6918 18.8464C18.589 19.7537 18.5487 22.9174 18.5487 22.9174C18.1228 22.4946 18.1327 20.2298 17.2094 18.9209C16.2862 17.6121 15.6641 8.45392 20.8272 5.12361C20.5099 5.4968 20.2813 5.93698 20.1584 6.41115C20.0355 6.88532 20.0216 7.38116 20.1177 7.86147C20.1177 7.86147 23.7043 2.71809 29.6546 2.86639C29.1828 3.12361 28.7706 3.47733 28.4447 3.90452C28.1188 4.3317 27.8866 4.82275 27.7631 5.34568C27.7631 5.34568 32.9651 3.1995 37.3 5.75256C36.173 6.06407 35.107 6.56476 34.1477 7.23328C36.2528 7.29108 38.2872 7.68199 39.8211 9.04636C39.491 9.15235 39.1855 9.32343 38.9226 9.54948C38.6597 9.77554 38.4447 10.052 38.2905 10.3625C38.1362 10.673 38.0457 11.0113 38.0244 11.3574C38.0031 11.7035 38.0513 12.0503 38.1663 12.3774C38.8173 15.0415 38.8781 17.5201 38.2476 18.8525C37.6172 20.1849 37.3198 19.3248 36.9251 22.1189C36.9058 22.3077 36.8428 22.4893 36.7411 22.6496C36.6395 22.8098 36.502 22.9442 36.3395 23.0422C36.3243 23.2445 36.63 20.1857 35.8414 19.3712C35.0535 18.5574 35.5486 17.5573 35.8634 16.9656C38.0613 12.8383 31.479 10.9682 27.881 10.9728C24.7606 10.9766 17.2338 12.3949 20.0066 16.8112Z" fill="#8A5C42"/>
<path fill-rule="evenodd" clip-rule="evenodd" d="M19.0506 37.3886C19.0735 37.4175 26.9737 47.6426 36.2612 37.2365C35.1394 40.3181 30.301 42.7654 27.5335 42.7578C22.2479 42.7426 19.3229 38.4989 19.0506 37.3886Z" fill="#434955"/>
<path fill-rule="evenodd" clip-rule="evenodd" d="M31.6342 46.6372C31.3224 46.692 31.009 46.7399 30.6934 46.7833V39.9865C30.705 39.8727 30.7606 39.7679 30.8485 39.6945C30.9363 39.6212 31.0493 39.5852 31.1634 39.5941C31.2776 39.5849 31.3908 39.6209 31.4788 39.6943C31.5668 39.7676 31.6226 39.8725 31.6342 39.9865V46.6372ZM24.1659 46.7635C23.8505 46.7184 23.5369 46.6677 23.2251 46.6114V39.9865C23.2367 39.8727 23.2924 39.7679 23.3802 39.6945C23.468 39.6212 23.5811 39.5852 23.6951 39.5941C23.8095 39.5847 23.9229 39.6206 24.0111 39.694C24.0992 39.7674 24.1551 39.8724 24.1667 39.9865L24.1659 46.7635Z" fill="#E6E6E6"/>
</g>
<defs>
<filter id="filter0_d_42_1967" x="0" y="0" width="55" height="55" filterUnits="userSpaceOnUse" color-interpolation-filters="sRGB">
<feFlood flood-opacity="0" result="BackgroundImageFix"/>
<feColorMatrix in="SourceAlpha" type="matrix" values="0 0 0 0 0 0 0 0 0 0 0 0 0 0 0 0 0 0 127 0" result="hardAlpha"/>
<feOffset dy="4"/>
<feGaussianBlur stdDeviation="2"/>
<feComposite in2="hardAlpha" operator="out"/>
<feColorMatrix type="matrix" values="0 0 0 0 0 0 0 0 0 0 0 0 0 0 0 0 0 0 0.25 0"/>
<feBlend mode="normal" in2="BackgroundImageFix" result="effect1_dropShadow_42_1967"/>
<feBlend mode="normal" in="SourceGraphic" in2="effect1_dropShadow_42_1967" result="shape"/>
</filter>
</defs>
</svg>
